#!OML:ASF F:\VICON\USERDATA\INSTALL\rory3\rory3.ASF
:FULLY-SPECIFIED
:DEGREES
220
root 0.608162 18.0587 9.18691 -3.29465 -0.419427 -6.42684
lowerback 11.4266 1.00661 5.58296
upperback -0.361224 2.24243 2.16042
thorax -6.68343 0.943355 -1.24253
lowerneck -16.9997 -3.95943 -1.43304
upperneck 20.9482 -5.62711 2.07401
head 9.52813 -2.49588 0.215229
rclavicle -1.5454e-014 3.926e-015
rhumerus -26.1105 -15.356 -79.6187
rradius 28.7941
rwrist 1.03484
rhand -19.0112 21.6991
rfingers 7.12502
rthumb 7.29434 -8.15519
lclavicle -1.5454e-014 3.926e-015
lhumerus -33.3359 -1.32964 83.8299
lradius 28.1285
lwrist 8.54736
lhand -27.7388 21.3876
lfingers 7.12502
lthumb -1.13368 51.3643
rfemur -2.91121 4.84797 34.7533
rtibia 27.913
rfoot -16.8643 -10.383
rtoes 4.36168
lfemur -26.0108 1.80658 -13.4991
ltibia 56.9307
lfoot -7.92267 3.08407
ltoes -8.06662
221
root 0.61987 18.0362 9.33761 -3.00818 -0.499561 -6.32959
lowerback 11.4529 1.11056 5.70959
upperback -0.485274 2.39705 2.0246
thorax -6.81068 1.00645 -1.48416
lowerneck -17.1489 -4.02467 -1.35571
upperneck 21.0974 -5.7039 1.91292
head 9.60168 -2.54004 0.132358
rclavicle -5.35399e-015 3.11098e-014
rhumerus -25.6086 -14.9586 -79.7993
rradius 29.0491
rwrist 0.750148
rhand -19.3043 21.4119
rfingers 7.12502
rthumb 7.01141 -8.45193
lclavicle -5.35399e-015 3.11098e-014
lhumerus -33.5272 -0.955395 83.7182
lradius 27.7698
lwrist 8.54514
lhand -27.5817 20.3929
lfingers 7.12502
lthumb -0.981932 50.3704
rfemur -2.63743 4.75276 34.6278
rtibia 27.8466
rfoot -17.3064 -10.3291
rtoes 5.25052
lfemur -26.7133 1.54487 -13.6531
ltibia 54.922
lfoot -8.68327 3.51096
ltoes -9.28853
222
root 0.628606 18.0207 9.4969 -2.81017 -0.516392 -6.26267
lowerback 11.3124 1.16452 5.82436
upperback -0.419926 2.46164 1.91101
thorax -6.64715 1.03774 -1.67373
lowerneck -17.4182 -4.0243 -1.35783
upperneck 21.0002 -5.71162 1.976
head 9.61965 -2.5345 0.148763
rclavicle -1.19496e-014 -2.31584e-014
rhumerus -25.1573 -14.5343 -80.0238
rradius 29.6291
rwrist 0.383617
rhand -19.4227 21.8618
rfingers 7.12502
rthumb 6.89716 -8.00584
lclavicle -1.19496e-014 -2.31584e-014
lhumerus -33.3301 -0.577525 83.5679
lradius 27.2592
lwrist 8.60117
lhand -27.4352 19.265
lfingers 7.12502
lthumb -0.840398 49.2431
rfemur -2.16298 4.63616 34.5646
rtibia 27.7842
rfoot -17.9108 -10.3374
rtoes 4.43683
lfemur -27.1937 1.19662 -13.7435
ltibia 52.7317
lfoot -9.38325 3.79513
ltoes -10.5799
223
root 0.627717 18.0146 9.65279 -2.78182 -0.783978 -6.48136
lowerback 11.4834 1.29021 6.10611
upperback -0.399661 2.67664 1.87692
thorax -6.69398 1.13104 -1.90718
lowerneck -17.3191 -4.00581 -1.52492
upperneck 20.7889 -5.72851 2.37373
head 9.54633 -2.5137 0.314791
rclavicle 1.36505e-014 -7.54139e-015
rhumerus -24.9901 -14.1804 -80.1892
rradius 30.221
rwrist 0.168616
rhand -19.6564 22.6419
rfingers 7.12502
rthumb 6.67152 -7.23301
lclavicle 1.36505e-014 -7.54139e-015
lhumerus -33.3256 -0.326483 83.435
lradius 26.8643
lwrist 8.52559
lhand -27.5662 19.6743
lfingers 7.12502
lthumb -0.966953 49.6519
rfemur -1.4823 5.12534 34.976
rtibia 27.6044
rfoot -18.302 -10.7603
rtoes 3.14688
lfemur -27.2769 0.920402 -13.3701
ltibia 50.3033
lfoot -8.96798 3.88016
ltoes -8.46296
224
root 0.633837 17.9932 9.80724 -2.62912 -1.01671 -6.68462
lowerback 11.6884 1.44014 6.39398
upperback -0.536467 2.9408 1.88495
thorax -6.92423 1.23961 -2.1123
lowerneck -17.0683 -4.02699 -1.70454
upperneck 20.5934 -5.75231 2.57843
head 9.4447 -2.52129 0.417941
rclavicle -3.29812e-014 4.83295e-015
rhumerus -24.6774 -14.0221 -80.1346
rradius 30.2705
rwrist 0.13371
rhand -19.9515 23.3085
rfingers 7.12502
rthumb 6.38664 -6.5752
lclavicle -3.29812e-014 4.83295e-015
lhumerus -33.7761 -0.124629 83.4529
lradius 26.8187
lwrist 8.28605
lhand -27.4845 20.7886
lfingers 7.12502
lthumb -0.888075 50.7665
rfemur -0.853446 5.47663 35.2804
rtibia 27.2616
rfoot -18.5906 -10.8847
rtoes 3.9518
lfemur -27.4053 0.497499 -12.9975
ltibia 47.7565
lfoot -8.40862 3.93163
ltoes -3.63515
225
root 0.644142 17.9771 9.96472 -2.29374 -1.0429 -6.68828
lowerback 11.5981 1.47654 6.47901
upperback -0.617716 2.99527 1.8472
thorax -6.9497 1.26005 -2.20659
lowerneck -17.3604 -4.01779 -1.59078
upperneck 20.5857 -5.71783 2.37371
head 9.48444 -2.51606 0.327896
rclavicle -1.3746e-015 -1.13245e-014
rhumerus -24.1021 -13.7689 -80.1788
rradius 30.2101
rwrist 0.0376424
rhand -20.0212 24.2361
rfingers 7.12502
rthumb 6.31939 -5.64961
lclavicle -1.3746e-015 -1.13245e-014
lhumerus -34.0156 0.218977 83.4531
lradius 26.8243
lwrist 8.45121
lhand -27.6771 21.6725
lfingers 7.12502
lthumb -1.07403 51.6496
rfemur -0.306835 5.6743 35.2723
rtibia 26.8262
rfoot -18.8655 -10.7972
rtoes 6.97841
lfemur -27.7908 0.0306649 -12.8997
ltibia 45.0202
lfoot -8.45089 3.78264
ltoes -2.59658
226
root 0.651972 17.973 10.1242 -2.0264 -1.14703 -6.84967
lowerback 11.4319 1.53466 6.71766
upperback -0.610603 3.08946 1.83745
thorax -6.82786 1.30163 -2.3585
lowerneck -17.7941 -4.0349 -1.49367
upperneck 20.6828 -5.7308 2.22085
head 9.59037 -2.52527 0.248093
rclavicle -3.46072e-014 -9.01054e-015
rhumerus -23.7317 -13.3739 -80.3171
rradius 30.7125
rwrist -0.505097
rhand -20.0182 24.1871
rfingers 7.12502
rthumb 6.32229 -5.6986
lclavicle -3.46072e-014 -9.01054e-015
lhumerus -34.117 0.237098 83.535
lradius 26.8941
lwrist 9.06849
lhand -27.6207 23.6264
lfingers 7.12502
lthumb -1.01954 53.6037
rfemur 0.225745 5.5826 35.4323
rtibia 26.3635
rfoot -18.4407 -10.9663
rtoes 8.47019
lfemur -28.0823 -0.326379 -12.601
ltibia 42.1532
lfoot -7.98036 3.74556
ltoes -5.19575
227
root 0.660184 17.9797 10.2897 -1.64632 -1.31769 -6.77835
lowerback 11.1256 1.64894 6.7473
upperback -0.663832 3.21538 1.75184
thorax -6.69334 1.36462 -2.47367
lowerneck -18.0927 -4.02805 -1.51128
upperneck 20.8577 -5.73082 2.26708
head 9.70925 -2.51506 0.259359
rclavicle 1.01062e-015 -1.34677e-014
rhumerus -23.5109 -13.053 -80.4232
rradius 31.3861
rwrist -1.11688
rhand -19.5019 23.4584
rfingers 7.12502
rthumb 6.82066 -6.41172
lclavicle 1.01062e-015 -1.34677e-014
lhumerus -34.2646 0.734659 83.4217
lradius 26.5006
lwrist 9.31316
lhand -29.0674 20.148
lfingers 7.12502
lthumb -2.41681 50.1141
rfemur 0.556165 5.4255 35.3199
rtibia 25.8232
rfoot -17.5273 -11.3783
rtoes 8.58599
lfemur -28.2395 -0.852626 -12.4971
ltibia 39.0885
lfoot -7.41372 3.73275
ltoes -7.74339
228
root 0.666323 17.9846 10.4579 -1.34368 -1.37808 -6.85087
lowerback 10.8322 1.75217 6.89698
upperback -0.674825 3.34473 1.72377
thorax -6.51741 1.42864 -2.59374
lowerneck -18.0621 -4.00681 -1.65019
upperneck 20.7753 -5.71141 2.48583
head 9.68603 -2.49291 0.361745
rclavicle -8.63549e-015 -1.5207e-014
rhumerus -23.1495 -13.0138 -80.4034
rradius 31.7399
rwrist -1.25539
rhand -19.204 23.3787
rfingers 7.12502
rthumb 7.10825 -6.48193
lclavicle -8.63549e-015 -1.5207e-014
lhumerus -34.3325 1.17785 83.367
lradius 25.9086
lwrist 9.49767
lhand -30.8801 13.8403
lfingers 7.12502
lthumb -4.16732 43.7793
rfemur 1.0405 5.31649 35.3791
rtibia 25.2214
rfoot -17.1687 -11.5157
rtoes 8.03231
lfemur -28.1982 -1.43702 -12.2109
ltibia 35.8973
lfoot -6.91316 3.4044
ltoes -8.90066
229
root 0.665617 17.9822 10.6257 -1.24287 -1.48145 -6.81762
lowerback 10.6948 1.91309 6.85204
upperback -0.633638 3.53306 1.64894
thorax -6.3755 1.52737 -2.66827
lowerneck -17.9568 -4.00634 -1.6633
upperneck 20.5965 -5.74926 2.68605
head 9.61185 -2.49193 0.431324
rclavicle -2.23881e-014 -2.45996e-014
rhumerus -22.7838 -13.037 -80.4487
rradius 32.1204
rwrist -1.57322
rhand -19.3864 22.8105
rfingers 7.12502
rthumb 6.93218 -7.056
lclavicle -2.23881e-014 -2.45996e-014
lhumerus -34.4247 1.28714 83.2583
lradius 25.5942
lwrist 9.09937
lhand -31.8998 13.9614
lfingers 7.12502
lthumb -5.15195 43.8787
rfemur 1.78639 5.35809 35.4143
rtibia 24.6704
rfoot -17.2077 -11.6692
rtoes 6.942
lfemur -27.8747 -2.14534 -11.9583
ltibia 32.6367
lfoot -6.58997 3.08382
ltoes -9.24829
230
root 0.670674 17.9701 10.7928 -1.11908 -1.66739 -6.89452
lowerback 10.655 2.01329 6.9261
upperback -0.64752 3.6712 1.62379
thorax -6.34892 1.59278 -2.75458
lowerneck -18.0905 -4.01703 -1.46434
upperneck 20.641 -5.7742 2.49184
head 9.63979 -2.50789 0.325388
rclavicle 1.26492e-014 -2.88238e-015
rhumerus -22.4036 -12.8274 -80.5732
rradius 32.6381
rwrist -2.2379
rhand -19.4798 20.9734
rfingers 7.12502
rthumb 6.84196 -8.89601
lclavicle 1.26492e-014 -2.88238e-015
lhumerus -34.5449 1.37415 83.2707
lradius 25.2472
lwrist 9.24953
lhand -33.0687 15.8847
lfingers 7.12502
lthumb -6.28052 45.7716
rfemur 2.60595 5.4136 35.526
rtibia 24.0938
rfoot -17.3679 -11.7246
rtoes 6.46937
lfemur -27.6708 -2.96617 -11.4932
ltibia 29.4591
lfoot -6.99156 3.25761
ltoes -6.39571
231
root 0.682077 17.9517 10.9554 -0.875005 -1.85195 -7.12136
lowerback 10.6589 2.07516 7.21055
upperback -0.745346 3.79566 1.61979
thorax -6.42677 1.63862 -2.93773
lowerneck -18.2969 -4.05774 -1.2644
upperneck 20.805 -5.83978 2.27179
head 9.72302 -2.54304 0.202038
rclavicle -4.33879e-014 -1.76918e-014
rhumerus -21.9775 -13.4962 -80.3743
rradius 31.3982
rwrist -0.92876
rhand -19.408 25.7674
rfingers 7.12502
rthumb 6.91133 -4.09981
lclavicle -4.33879e-014 -1.76918e-014
lhumerus -34.4926 1.68295 83.1611
lradius 24.2545
lwrist 9.3021
lhand -32.0012 15.8668
lfingers 7.12502
lthumb -5.24988 45.7818
rfemur 3.31827 5.38898 35.7294
rtibia 23.5113
rfoot -17.5199 -11.5423
rtoes 6.72202
lfemur -27.6054 -3.81759 -10.8583
ltibia 26.3713
lfoot -6.52783 3.4991
ltoes -8.97027
232
root 0.690899 17.9434 11.1245 -0.661737 -2.01949 -7.36167
lowerback 10.5621 2.151 7.44929
upperback -0.786516 3.92488 1.69053
thorax -6.39346 1.69529 -3.01034
lowerneck -18.4628 -4.02814 -1.38549
upperneck 20.8822 -5.77949 2.33217
head 9.78569 -2.51433 0.247064
rclavicle 3.58356e-014 -6.06293e-015
rhumerus -21.5557 -14.3433 -79.9465
rradius 30.2332
rwrist -0.132505
rhand -18.3681 30.443
rfingers 7.12502
rthumb 7.91509 0.611177
lclavicle 3.58356e-014 -6.06293e-015
lhumerus -34.4349 2.64382 82.8167
lradius 23.1879
lwrist 8.46072
lhand -30.1032 15.6804
lfingers 7.12502
lthumb -3.4171 45.6327
rfemur 3.98804 5.20267 35.9072
rtibia 22.9351
rfoot -17.363 -11.2596
rtoes 5.99483
lfemur -27.4066 -4.62298 -10.2627
ltibia 23.4444
lfoot -7.39742 4.02571
ltoes -9.42049
233
root 0.698093 17.9385 11.3019 -0.591584 -2.15032 -7.53975
lowerback 10.4686 2.23148 7.63785
upperback -0.7775 4.04819 1.72642
thorax -6.30883 1.75357 -3.08916
lowerneck -18.3264 -3.95972 -1.41933
upperneck 20.6505 -5.68052 2.39176
head 9.6797 -2.46927 0.291712
rclavicle 3.49768e-014 -1.1281e-014
rhumerus -21.3292 -13.0436 -80.4946
rradius 32.2578
rwrist -1.71185
rhand -19.3668 22.7145
rfingers 7.12502
rthumb 6.95113 -7.15142
lclavicle 3.49768e-014 -1.1281e-014
lhumerus -34.5136 3.67712 82.3124
lradius 22.5214
lwrist 6.85342
lhand -29.4062 17.8425
lfingers 7.12502
lthumb -2.74401 47.8046
rfemur 4.77497 5.1346 36.0664
rtibia 22.4053
rfoot -16.9787 -11.1097
rtoes 5.56168
lfemur -27.1278 -5.3162 -9.77331
ltibia 20.7955
lfoot -7.33235 4.35127
ltoes -11.3914
234
root 0.703544 17.9228 11.4825 -0.625071 -2.42329 -7.76937
lowerback 10.4299 2.39416 7.86604
upperback -0.770022 4.28907 1.73605
thorax -6.23882 1.86705 -3.23646
lowerneck -17.7979 -4.00041 -1.43026
upperneck 20.2279 -5.76 2.55067
head 9.44167 -2.50157 0.351233
rclavicle 4.11205e-014 0
rhumerus -21.2459 -13.3734 -80.455
rradius 32.3943
rwrist -1.24753
rhand -19.4901 22.4258
rfingers 7.12502
rthumb 6.83208 -7.44399
lclavicle 4.11205e-014 0
lhumerus -34.7036 4.33455 81.8436
lradius 22.044
lwrist 5.06469
lhand -29.5109 22.2541
lfingers 7.12502
lthumb -2.84511 52.2149
rfemur 5.64064 5.19107 36.2876
rtibia 22.0392
rfoot -17.7821 -10.9716
rtoes 5.27742
lfemur -26.7565 -5.90309 -9.20511
ltibia 18.3138
lfoot -7.89123 4.82373
ltoes -10.8973
